<svg xmlns="http://www.w3.org/2000/svg" viewBox="0 0 384.974 384.974" width="512" height="512"><path d="M381.463 183.891L273.166 75.631c-4.752-4.74-12.451-4.74-17.215 0-4.752 4.74-4.752 12.439 0 17.179l99.707 99.671-99.695 99.671c-4.752 4.74-4.752 12.439 0 17.191 4.752 4.74 12.463 4.74 17.215 0l108.297-108.261c4.668-4.691 4.668-12.511-.012-17.191zM129.031 75.631c-4.752-4.74-12.463-4.74-17.215 0L3.519 183.891c-4.692 4.68-4.692 12.499 0 17.191l108.297 108.261c4.752 4.74 12.451 4.74 17.215 0 4.752-4.74 4.752-12.439 0-17.179l-99.707-99.683 99.695-99.671c4.764-4.74 4.764-12.439.012-17.179z" fill="#10c9c3"/></svg>