<svg xmlns="http://www.w3.org/2000/svg" viewBox="0 0 512.001 512.001" width="512" height="512"><g fill="#FFF"><path d="M305.271 182.764c-7.789 0-15.578 2.797-15.578 9.387v67.9l-32.352-61.709c-7.59-14.579-11.783-15.578-22.967-15.578-7.789 0-15.577 2.996-15.577 9.586v126.813c0 6.391 7.788 9.586 15.577 9.586s15.577-3.195 15.577-9.586v-67.9l37.944 69.099c3.795 6.99 10.186 8.388 17.375 8.388 7.788 0 15.576-3.195 15.576-9.586V192.15c0-6.589-7.788-9.386-15.575-9.386zm-109.437 27.16c5.991 0 9.387-6.39 9.387-13.779 0-6.391-2.797-13.381-9.387-13.381h-71.096c-6.79 0-13.58 3.195-13.58 9.586v126.814c0 6.391 6.79 9.586 13.58 9.586h71.096c6.59 0 9.387-6.99 9.387-13.381 0-7.388-3.396-13.779-9.387-13.779h-53.521v-33.95h29.956c6.591 0 9.386-6.39 9.386-11.782 0-6.391-3.395-12.183-9.386-12.183h-29.956v-33.751h53.521z"/><path d="M438.142 256l71.924-151.419A20 20 0 0 0 492 76H20C8.954 76 0 84.954 0 96v320c0 11.046 8.954 20 20 20h472a20.002 20.002 0 0 0 18.065-28.581L438.142 256zM40 396V116h420.358l-62.424 131.419a20.001 20.001 0 0 0 0 17.162L460.358 396H40z"/></g></svg>